HIERARCHY
ROOT Hips
{
	OFFSET	0.00	0.00	0.00
	CHANNELS 6 Xposition Yposition Zposition Zrotation Xrotation Yrotation
	JOINT LeftUpLeg
	{
		OFFSET	 0.126116	-0.014019	-0.065224
		CHANNELS 3 Zrotation Xrotation Yrotation
		JOINT LeftLeg
		{
			OFFSET	 0.000000	 0.000000	 0.569914
			CHANNELS 3 Zrotation Xrotation Yrotation
			JOINT LeftFoot
			{
				OFFSET	 0.000000	 0.000000	 0.544423
				CHANNELS 3 Zrotation Xrotation Yrotation
				JOINT LeftToeBase
				{
					OFFSET	 0.000000	 0.000000	 0.207117
					CHANNELS 3 Zrotation Xrotation Yrotation
					End Site
					{
						OFFSET	 0.000000	 0.000000	 0.207117
					}
				}
			}
		}
	}
	JOINT RightUpLeg
	{
		OFFSET	-0.124023	-0.008373	-0.065224
		CHANNELS 3 Zrotation Xrotation Yrotation
		JOINT RightLeg
		{
			OFFSET	 0.000000	 0.000000	 0.570047
			CHANNELS 3 Zrotation Xrotation Yrotation
			JOINT RightFoot
			{
				OFFSET	 0.000000	 0.000000	 0.544354
				CHANNELS 3 Zrotation Xrotation Yrotation
				JOINT RightToeBase
				{
					OFFSET	 0.000000	 0.000000	 0.207540
					CHANNELS 3 Zrotation Xrotation Yrotation
					End Site
					{
						OFFSET	 0.000000	 0.000000	 0.207540
					}
				}
			}
		}
	}
	JOINT Spine
	{
		OFFSET	 0.000184	-0.007763	 0.117403
		CHANNELS 3 Zrotation Xrotation Yrotation
		JOINT Spine1
		{
			OFFSET	 0.000000	 0.000000	 0.137269
			CHANNELS 3 Zrotation Xrotation Yrotation
			JOINT Spine2
			{
				OFFSET	 0.000000	 0.000000	 0.156879
				CHANNELS 3 Zrotation Xrotation Yrotation
				JOINT LeftShoulder
				{
					OFFSET	 0.080501	-0.002496	 0.160144
					CHANNELS 3 Zrotation Xrotation Yrotation
					JOINT LeftArm
					{
						OFFSET	 0.000000	 0.000000	 0.164363
						CHANNELS 3 Zrotation Xrotation Yrotation
						JOINT LeftForeArm
						{
							OFFSET	 0.000000	 0.000000	 0.364576
							CHANNELS 3 Zrotation Xrotation Yrotation
							JOINT LeftHand
							{
								OFFSET	 0.000000	 0.000000	 0.360812
								CHANNELS 3 Zrotation Xrotation Yrotation
								JOINT LeftHandIndex1
								{
									OFFSET	 0.000000	 0.000000	 0.086006
									CHANNELS 3 Zrotation Xrotation Yrotation
									JOINT LeftHandIndex2
									{
										OFFSET	 0.000000	 0.000000	 0.047236
										CHANNELS 3 Zrotation Xrotation Yrotation
										JOINT LeftHandIndex3
										{
											OFFSET	-0.004284	-0.000551	 0.038166
											CHANNELS 3 Zrotation Xrotation Yrotation
											End Site
											{
												OFFSET	-0.004284	-0.000551	 0.038166
											}
										}
									}
								}
							}
						}
					}
				}
				JOINT Neck
				{
					OFFSET	 0.000000	 0.000000	 0.176489
					CHANNELS 3 Zrotation Xrotation Yrotation
					JOINT Head
					{
						OFFSET	 0.000000	-0.001747	 0.077940
						CHANNELS 3 Zrotation Xrotation Yrotation
						End Site
						{
							OFFSET	 0.000000	-0.001747	 0.077940
						}
					}
				}
				JOINT RightShoulder
				{
					OFFSET	-0.080363	 0.000306	 0.159706
					CHANNELS 3 Zrotation Xrotation Yrotation
					JOINT RightArm
					{
						OFFSET	 0.000000	 0.000000	 0.164196
						CHANNELS 3 Zrotation Xrotation Yrotation
						JOINT RightForeArm
						{
							OFFSET	 0.000000	 0.000000	 0.365611
							CHANNELS 3 Zrotation Xrotation Yrotation
							JOINT RightHand
							{
								OFFSET	 0.000000	 0.000000	 0.360648
								CHANNELS 3 Zrotation Xrotation Yrotation
								JOINT RightHandIndex1
								{
									OFFSET	 0.000000	 0.000000	 0.069977
									CHANNELS 3 Zrotation Xrotation Yrotation
									JOINT RightHandIndex2
									{
										OFFSET	 0.000000	 0.000000	 0.052305
										CHANNELS 3 Zrotation Xrotation Yrotation
										JOINT RightHandIndex3
										{
											OFFSET	 0.009002	-0.000782	 0.042196
											CHANNELS 3 Zrotation Xrotation Yrotation
											End Site
											{
												OFFSET	 0.009002	-0.000782	 0.042196
											}
										}
									}
								}
							}
						}
					}
				}
			}
		}
	}
}
MOTION
Frames:    7
Frame Time: 0.03333334
-0.000196	 0.018278	 1.228227	-0.002366	 0.002484	 0.027817	 25.339600	-14.405980	 175.537400	 0.898865	-33.294770	-2.165237	-23.150680	 79.404220	 17.888790	-2.385833	 28.452760	 0.000004	-25.486600	-14.472370	-175.599100	-0.894803	-33.322980	 2.127696	 22.843320	 79.544550	-17.707190	 2.384658	 28.388730	 0.000004	 36.299850	 3.714351	 0.137193	-0.265811	 0.229058	-0.159951	 0.806436	-0.293069	 0.152176	-91.776150	 78.527470	 180.000000	 40.334500	 29.761700	-52.339390	-23.944900	 2.412032	-7.840627	-41.034070	 2.232906	-3.860962	-2.635965	 4.993658	 6.788941	-5.165319	 0.784187	 3.516649	-5.225038	 0.466231	 0.424329	-0.000002	-3.783157	-0.089647	 0.797579	 7.096996	-0.049474	 89.782100	 78.203870	 180.000000	 2.404202	 12.592560	 109.103000	-18.566840	 2.098743	 7.967962	 15.957630	-0.524289	-6.160844	 6.112037	 4.509576	-0.364401	 4.968462	 1.518543	-9.347576	 5.168945	 0.703820	 2.021906
-0.000169	 0.018032	 1.228810	-0.003174	 0.003345	 0.040642	 25.346020	-14.312380	 175.521200	 0.907847	-33.095130	-2.148828	-22.907970	 79.315610	 17.641210	-2.385833	 28.452760	 0.000004	-25.496990	-14.351370	-175.601200	-0.904540	-33.102670	 2.109911	 22.611050	 79.450140	-17.471470	 2.384658	 28.388730	 0.000004	 33.681430	 3.703836	 0.162697	-0.405702	 0.262947	-0.241120	 1.229608	-0.333886	 0.231466	-91.776200	 78.527450	-180.000000	 40.323020	 29.870010	-52.382950	-20.533540	 1.567632	-6.309014	-41.404690	 2.253803	-3.847353	-2.635965	 4.993658	 6.788941	-5.165319	 0.784187	 3.516649	-5.225038	 0.466231	 0.424329	-0.000002	-3.783157	-0.089647	 1.219688	 7.067404	-0.075336	 89.782060	 78.203870	-180.000000	 2.290998	 12.712720	 109.097100	-22.088560	 1.247563	 6.418847	 16.340560	-0.671489	-6.182365	 6.112037	 4.509576	-0.364401	 4.968462	 1.518543	-9.347576	 5.168945	 0.703820	 2.021906
-0.000114	 0.017769	 1.229195	-0.003882	 0.004097	 0.052344	 25.349630	-14.251630	 175.507200	 0.913671	-32.964790	-2.138147	-22.755950	 79.258610	 17.486110	-2.385833	 28.452760	 0.000004	-25.504290	-14.264870	-175.603700	-0.911119	-32.952540	 2.097842	 22.469150	 79.387790	-17.327830	 2.384658	 28.388730	 0.000004	 29.905750	 3.690012	 0.186801	-0.538009	 0.308951	-0.316772	 1.629916	-0.388686	 0.306803	-91.776120	 78.527470	 179.999900	 40.337620	 30.011450	-52.474410	-17.045440	 0.911422	-4.691707	-41.759710	 2.268248	-3.836505	-2.635965	 4.993658	 6.788941	-5.165319	 0.784187	 3.516649	-5.225038	 0.466231	 0.424329	-0.000002	-3.783157	-0.089647	 1.618645	 7.027746	-0.099414	 89.782120	 78.203870	 180.000000	 2.354645	 12.892140	 109.083100	-25.690800	 0.583937	 4.781923	 16.717680	-0.790416	-6.202447	 6.112037	 4.509576	-0.364401	 4.968462	 1.518543	-9.347576	 5.168945	 0.703820	 2.021906
-0.000063	 0.017532	 1.229593	-0.004446	 0.004646	 0.062414	 25.353770	-14.187210	 175.494700	 0.919731	-32.828040	-2.126985	-22.596450	 79.198410	 17.323340	-2.385833	 28.452760	 0.000004	-25.511600	-14.177500	-175.605000	-0.917836	-32.798030	 2.085463	 22.319540	 79.322890	-17.176140	 2.384658	 28.388730	 0.000004	 25.385500	 3.674078	 0.208628	-0.657815	 0.363034	-0.383879	 1.992443	-0.452662	 0.375370	-91.776170	 78.527420	 180.000000	 40.383880	 30.163700	-52.608470	-13.672430	 0.473819	-3.090718	-42.085770	 2.276411	-3.828458	-2.635965	 4.993658	 6.788941	-5.165319	 0.784187	 3.516649	-5.225038	 0.466231	 0.424329	-0.000002	-3.783157	-0.089647	 1.979666	 6.981763	-0.120791	 89.782150	 78.203890	 180.000000	 1.851396	 12.973740	 108.970600	-29.172930	 0.140691	 3.160737	 16.906780	-0.827168	-6.228437	 6.112037	 4.509576	-0.364401	 4.968462	 1.518543	-9.347576	 5.168945	 0.703820	 2.021906
-0.000036	 0.017285	 1.230483	-0.004974	 0.005167	 0.074169	 25.365240	-14.036880	 175.477300	 0.933549	-32.513070	-2.101393	-22.223470	 79.056480	 16.942480	-2.385833	 28.452760	 0.000004	-25.526790	-13.999030	-175.603500	-0.932319	-32.460910	 2.058607	 21.959280	 79.175070	-16.809540	 2.384658	 28.388730	 0.000004	 18.384250	 3.649647	 0.235476	-0.805775	 0.446945	-0.464657	 2.440170	-0.551626	 0.460740	-91.776190	 78.527430	-180.000000	 40.469140	 30.387630	-52.822190	-9.238120	 0.193591	-0.956207	-42.496330	 2.279512	-3.821342	-2.635965	 4.993658	 6.788941	-5.165319	 0.784187	 3.516649	-5.225038	 0.466231	 0.424329	-0.000002	-3.783157	-0.089647	 2.424882	 6.911205	-0.146462	 89.782180	 78.203870	 179.999900	-0.574205	 12.841440	 108.612400	-33.694470	-0.145520	 0.998200	 16.687510	-0.708681	-6.275319	 6.112037	 4.509576	-0.364401	 4.968462	 1.518543	-9.347576	 5.168945	 0.703820	 2.021906
-0.000037	 0.017116	 1.231446	-0.005278	 0.005447	 0.083009	 25.378550	-13.870480	 175.462100	 0.948518	-32.166050	-2.073406	-21.819740	 78.898560	 16.529950	-2.385833	 28.452760	 0.000004	-25.542920	-13.810230	-175.599900	-0.947736	-32.095880	 2.029748	 21.566180	 79.012460	-16.408920	 2.384658	 28.388730	 0.000004	 11.736090	 3.619217	 0.215223	-0.924160	 0.540092	-0.449321	 2.796972	-0.654834	 0.493571	-91.776150	 78.527470	 180.000000	 40.563440	 30.590180	-53.033500	-5.508426	 0.094614	-1.740708	-42.831220	 2.275752	-3.818285	-2.635965	 4.993658	 6.788941	-5.165319	 0.784187	 3.516649	-5.225038	 0.466231	 0.424329	-0.000002	-3.783157	-0.089647	 2.779449	 6.843493	-0.166235	 89.782060	 78.203890	-180.000000	-3.830951	 12.838010	 108.135100	-37.219900	-0.244482	 1.762138	 16.183630	-0.591722	-6.279471	 6.112037	 4.509576	-0.364401	 4.968462	 1.518543	-9.347576	 5.168945	 0.703820	 2.021906
-0.000034	 0.016934	 1.232455	-0.005466	 0.005603	 0.091481	 25.392760	-13.693450	 175.446800	 0.964119	-31.797900	-2.043954	-21.404020	 78.730420	 16.104910	-2.385833	 28.452760	 0.000004	-25.559930	-13.610380	-175.595300	-0.963762	-31.708990	 1.999419	 21.161730	 78.839520	-15.996480	 2.384658	 28.388730	 0.000004	 4.136928	 3.590725	 0.232209	-1.043937	 0.637920	-0.502838	 3.159100	-0.769961	 0.560692	-91.776140	 78.527490	 179.999900	 40.691790	 30.827260	-53.300450	-1.577261	-0.246141	-3.650989	-43.179400	 2.265442	-3.818098	-2.635965	 4.993658	 6.788941	-5.165319	 0.784187	 3.516649	-5.225038	 0.466231	 0.424329	-0.000002	-3.783157	-0.089647	 3.138401	 6.763809	-0.185520	 89.782140	 78.203890	 180.000000	-7.967635	 13.258630	 107.156700	-40.446850	-0.580459	 3.652908	 16.058430	-0.749860	-6.191371	 6.112037	 4.509576	-0.364401	 4.968462	 1.518543	-9.347576	 5.168945	 0.703820	 2.021906
